<svg xmlns="http://www.w3.org/2000/svg" viewBox="54 -79 116.8 192">
<!-- SVG created with Arrow, by QuiverAI (https://quiver.ai) -->
  <style type="text/css">.cls-0 {fill:#F3DCA7;}
.cls-1 {fill:#00A36C;}</style>
  <path d="m146 8c-2-8.5-8.4-12.6-13.9-12.6-2.2 0-3.9-0.1-6.4 1.1l8.9-52.5c0.7-4.8 1.7-10.3-3.7-14-3-2-7.9-2.7-11.1-1.4-3.9 1.7-7 6.3-8.5 14.6l-11 52.9c-0.4 1.7-0.7 3.2-1.4 2.9-0.3 0-2.3-10-3.1-13.6l-8.1-37.2c-1.3-5.6-4.7-13.2-10.8-13.8-2.4-0.1-7.4 0.2-9.7 2.7-3.4 3.5-4.4 9-3.8 14.9 1.5 13 5.4 38.3 7.7 54.2 0.8 5 1 7.4 0.6 14.8-0.2 4.7-0.8 14.7-1 17-0.2 2.6-2.1 5.8-2.9 11.2-1.1 7.4 1.1 16.2 5 25.5 2.1 4.8 5.4 11.6 8.6 17.3 1 1.9 1.5 3.1 1.6 11h6v-9.3c0.7 0.5 1.6 0.3 1.9-0.3 0.4-0.6 0.2-1.4-0.4-1.8-0.6-0.3-1.5-0.2-2.6-0.1-2.2-4-7.8-12.5-11-21.6 2.1 0.5 2.8-1 1.7-2.1-0.5-0.5-1.6-0.7-2.3 0.2-3.6-9.1-5.1-16.5 0-22.7l18.9-23c1.3-1.6 1.5-2.3 3.3-3l9-3.6c0.8-0.3 0.5-0.3 0.8 0 0.8 0.5 3.5 4.6 4.3 5.9 2.4 3 7.8 1.1 10.3-1.6 0.9-0.3 1.1-0.3 1.5 0-0.2 0.9-0.9 2.7-1.5 3.3-1.8 1.4-10.8 7.2-14.7 9.5-1.5 0.9-2 2.2-3.1 3.9l-7.7 11.3c-2 3 1.2 6.6 4.8 3.8 1.3-1.2 2.4-3.7 2.4-3.7 0.9 0 5.8 10 7.7 15.8-2.3-1.3-3.5 2.2-0.5 2.2l0.8-0.7 0.2 1.8c-2.5 0.2-2.4 2.7-0.3 2.7l0.8-0.5c0.9 2.5-1 1.6 0 4.3l0.2 0.3c0.1 2.1-0.2 6.2-0.2 6.2 0.3 2.8 4.2 4.9 5 1.4l0.7-4.2c0.9-0.5 1-1.5 0.3-2.3 0.1-1.8 0-3.7-0.1-6.1l0.7 0.1c1.2 0 2-2.4-0.3-2.5l-0.8 0.1c-1-7.1-4.8-13.7-4.9-14.8l5.5 1.8c4.6 1.3 7.5-1.7 7.9-1.7h0.3c0.8 2.5 2.4 3.9 5.9 5.6-1.6 1.8 1.6 3.4 2.1 0.6l1.6-0.2c0.5 1.2 1.8 1.6 2.9 0 1.1 0 1.8-0.4 2.5 0s2.3-0.8 0.5-2.3l4.3-3.1c0.8-0.6 2.6-4.9 4.8-9.6 0.9 4.1 3.8-0.8 0.7-0.4l0.4-1m-75.1-7.7c-1.1 1.2-0.8-0.5-0.8-2.9v-21.3c-0.7-10.3-7.4-50.3-8.8-57.9-0.4-3.4 0.9-10.8 5.6-10.5s5.7 3.1 6.4 5l7.7 31.7h0.4c1.1 5.9 5.7 24.2 6.9 28.2 0.9 2.8 2.5 3.8 6 2.7 1.5-0.5 2.5-1.5 2.8-3.5l8.5-38.3 5-23.5c0.7-3.1 2.5-10.3 6.2-10.7 1.4-0.3 3.1 0.7 2.9 2.4-0.5 1.1 0.5 1.8 0.4 2.7 0 0.1-0.7 6.4-1.1 7.4-0.9 0.7-0.1 2.6-0.5 2.5l-0.3 2.6c-1.4 0-2.3 1.9-0.4 2.9l-0.4 2.7c-2.5-1.1-3.1 2.7-0.5 2.8l-0.3 2.5c-1.2-1.6-3.5 1-1 2.1h0.8l-5.5 41.5-0.3 1.9-11.3 4.7c-1-0.7-2 0.3-2.1 0.8l-2.3 1c-1.2 0.2-1.4-1-2.5 0.6-0.6 0.9-5.5 1.4-8.6 4.7zm43.4-19.1c-2.4 1.8-5.2 2.9-6.5 2.9-1.1-0.1-1.1-0.7-2.9-3.8-0.3-0.6 1.1-1.2 7.2-3.4 6.8-2.8 5.7 2.4 2.2 4.3m-0.6 14.9c-0.1-0.6 5.2-5.8 7.2-8.6l1-6.7c0.8-8.3-4.6-8.5-4.3-9.8 4-8.5 12.9-6.2 14.5-0.7 0.6 2.8 0 5.5-0.8 7.7l-8.5 22.1c-0.4 1.3-8.9-4-9.1-4m2.6 12.3c-0.6 4.1-9 4.7-8.1-0.6 2.4-10.4 9.6-8.8 8.9-4.4zm13.8 6.6c-1.7 3.5-7.4 1.8-6-2.6 1.1-2.4 2.6-5.6 5.1-5 1.2 0.2 2.7 1.7 2.6 2.9zm16.4-24.5-10.1 18.5c-1.8-4.7-5.1-6.6-9.1-5.9l6.9-16.8c1 0.5 3.2-1.2 0.8-3 1.7-3.3 3.2-4.7 7.3-4 4.8 1.1 6.6 6.8 4.2 11.2" fill="#00A36C"/>
  <circle class="cls-1" cx="71.8" cy="-55.9" r="1.3"/>
  <circle class="cls-1" cx="76.4" cy="-56.6" r="1.3"/>
  <circle class="cls-1" cx="79.4" cy="-53.9" r="1.3"/>
  <circle class="cls-1" cx="76.4" cy="-50.4" r="1.3"/>
  <circle class="cls-1" cx="70.5" cy="-49.6" r="1.3"/>
  <circle class="cls-1" cx="70.9" cy="-44.9" r="1.3"/>
  <circle class="cls-1" cx="76.4" cy="-44.6" r="1.3"/>
  <circle class="cls-1" cx="79.9" cy="-44.9" r="1.3"/>
  <ellipse class="cls-1" cx="82.4" cy="-40.7" rx="1.3" ry="1.3"/>
  <circle class="cls-1" cx="73.8" cy="-39.6" r="1.3"/>
  <circle class="cls-1" cx="78.2" cy="-39.6" r="1.3"/>
  <circle class="cls-1" cx="74.2" cy="-34.6" r="1.3"/>
  <circle class="cls-1" cx="79.2" cy="-34.6" r="1.3"/>
  <circle class="cls-1" cx="83.2" cy="-34.6" r="1.3"/>
  <circle class="cls-1" cx="77.9" cy="-29.7" r="1.3"/>
  <circle class="cls-1" cx="82.2" cy="-29.7" r="1.3"/>
  <circle class="cls-1" cx="86.4" cy="-29.7" r="1.3"/>
  <circle class="cls-1" cx="78.2" cy="-25.4" r="1.3"/>
  <circle class="cls-1" cx="82.4" cy="-25.4" r="1.3"/>
  <circle class="cls-1" cx="86.9" cy="-25.4" r="1.3"/>
  <circle class="cls-1" cx="78.2" cy="-20.6" r="1.3"/>
  <circle class="cls-1" cx="82.8" cy="-20.6" r="1.3"/>
  <circle class="cls-1" cx="87.2" cy="-20.6" r="1.3"/>
  <circle class="cls-1" cx="78.2" cy="-15.9" r="1.3"/>
  <circle class="cls-1" cx="82.4" cy="-15.9" r="1.3"/>
  <circle class="cls-1" cx="86.9" cy="-15.9" r="1.3"/>
  <circle class="cls-1" cx="78.2" cy="-11.1" r="1.2"/>
  <circle class="cls-1" cx="82.8" cy="-11.1" r="1.2"/>
  <circle class="cls-1" cx="87.1" cy="-11.1" r="1.2"/>
  <circle class="cls-1" cx="79.6" cy="-6.4" r="1.3"/>
  <circle class="cls-1" cx="84.1" cy="-6.4" r="1.3"/>
  <circle class="cls-1" cx="88.5" cy="-6.4" r="1.3"/>
  <circle class="cls-1" cx="79.6" cy="-1.4" r="1.3"/>
  <circle class="cls-1" cx="83.9" cy="-1.4" r="1.3"/>
  <circle class="cls-1" cx="88.5" cy="-1.4" r="1.3"/>
  <circle class="cls-1" cx="80.2" cy="3.6" r="1.3"/>
  <circle class="cls-1" cx="84.1" cy="3.6" r="1.3"/>
  <circle class="cls-1" cx="88.5" cy="3.6" r="1.3"/>
  <circle class="cls-1" cx="84.6" cy="7.7" r="1.3"/>
  <circle class="cls-1" cx="89.1" cy="7.7" r="1.3"/>
  <circle class="cls-1" cx="80.8" cy="11" r="1.3"/>
  <circle class="cls-1" cx="84.9" cy="12.1" r="1.3"/>
  <circle class="cls-1" cx="89.2" cy="12.1" r="1.3"/>
  <circle class="cls-1" cx="84.4" cy="16.6" r="1.3"/>
  <circle class="cls-1" cx="89.2" cy="16.6" r="1.3"/>
  <circle class="cls-1" cx="80.4" cy="16.8" r="1.3"/>
  <circle class="cls-1" cx="80.7" cy="21.4" r="1.3"/>
  <circle class="cls-1" cx="83.4" cy="24.4" r="1.3"/>
  <circle class="cls-1" cx="80.1" cy="44.6" r="1.3"/>
  <circle class="cls-1" cx="84.4" cy="43.2" r="1.3"/>
  <circle class="cls-1" cx="88.4" cy="38.4" r="1.3"/>
  <circle class="cls-1" cx="91.7" cy="37.3" r="1.3"/>
  <circle class="cls-1" cx="95.1" cy="31.6" r="1.3"/>
  <circle class="cls-1" cx="99.7" cy="31" r="1.3"/>
  <circle class="cls-1" cx="103.2" cy="30.1" r="1.3"/>
  <circle class="cls-1" cx="106.8" cy="28.9" r="1.3"/>
  <circle class="cls-1" cx="99.4" cy="35.5" r="1.3"/>
  <circle class="cls-1" cx="96.3" cy="39" r="1.3"/>
  <circle class="cls-1" cx="92.6" cy="41.4" r="1.3"/>
  <circle class="cls-1" cx="88.3" cy="42.4" r="1.3"/>
  <circle class="cls-1" cx="86.6" cy="49.1" r="1.3"/>
  <circle class="cls-1" cx="83.1" cy="50.1" r="1.3"/>
  <circle class="cls-1" cx="79.6" cy="50.9" r="1.3"/>
  <circle class="cls-1" cx="75.9" cy="52.4" r="1.3"/>
  <circle class="cls-1" cx="75.9" cy="57.7" r="1.3"/>
  <circle class="cls-1" cx="79.1" cy="57.2" r="1.3"/>
  <circle class="cls-1" cx="83.6" cy="56.4" r="1.3"/>
  <circle class="cls-1" cx="87.6" cy="55" r="1.3"/>
  <circle class="cls-1" cx="94.4" cy="53.1" r="1.3"/>
  <circle class="cls-1" cx="91.6" cy="48.2" r="1.3"/>
  <circle class="cls-1" cx="94.1" cy="47.1" r="1.3"/>
  <circle class="cls-1" cx="97.6" cy="45.4" r="1.3"/>
  <line x1="99.4" x2="109.4" y1="53.4" y2="52.6" stroke="#F3DCA7"/>
  <circle class="cls-1" cx="97.6" cy="22.1" r="1.3"/>
  <circle class="cls-1" cx="104" cy="20.6" r="1.3"/>
  <circle class="cls-1" cx="107.6" cy="21.6" r="1.3"/>
  <circle class="cls-1" cx="110.1" cy="25.1" r="1.3"/>
  <circle class="cls-1" cx="122.1" cy="-65.1" r="1.3"/>
  <circle class="cls-1" cx="117.9" cy="-58.4" r="1.3"/>
  <circle class="cls-1" cx="116.9" cy="-54.1" r="1.3"/>
  <circle class="cls-1" cx="115.9" cy="-49.1" r="1.3"/>
  <circle class="cls-1" cx="114.6" cy="-44.1" r="1.3"/>
  <circle class="cls-1" cx="114" cy="-39.1" r="1.3"/>
  <circle class="cls-1" cx="113.1" cy="-34.4" r="1.3"/>
  <circle class="cls-1" cx="112.4" cy="-29.4" r="1.3"/>
  <circle class="cls-1" cx="111.6" cy="-24.4" r="1.2"/>
  <circle class="cls-1" cx="111.3" cy="-19.6" r="1.3"/>
  <circle class="cls-1" cx="110.6" cy="-14.7" r="1.3"/>
  <circle class="cls-1" cx="109.9" cy="-9.6" r="1.3"/>
  <circle class="cls-1" cx="109.4" cy="-4.6" r="1.3"/>
  <circle class="cls-1" cx="110.5" cy="2.5" r="1.3"/>
  <circle class="cls-1" cx="115.7" cy="1.6" r="1.3"/>
  <circle class="cls-1" cx="116.6" cy="-4.6" r="1.3"/>
  <circle class="cls-1" cx="116.9" cy="-9.2" r="1.3"/>
  <circle class="cls-1" cx="117.4" cy="-14.4" r="1.3"/>
  <circle class="cls-1" cx="119.1" cy="-19.4" r="1.3"/>
  <circle class="cls-1" cx="119" cy="-24.4" r="1.3"/>
  <ellipse class="cls-1" cx="119.6" cy="-28.4" rx="1.3" ry="1.3"/>
  <circle class="cls-1" cx="121.1" cy="-33.1" r="1.3"/>
  <circle class="cls-1" cx="121.6" cy="-37.4" r="1.3"/>
  <circle class="cls-1" cx="130.4" cy=".4" r="1.3"/>
  <circle class="cls-1" cx="134.6" cy="2.6" r="1.3"/>
  <circle class="cls-1" cx="136.6" cy="7.7" r="1.3"/>
  <circle class="cls-1" cx="133.8" cy="14.2" r="1.3"/>
  <circle class="cls-1" cx="132.1" cy="19" r="1.3"/>
  <circle class="cls-1" cx="128.3" cy="26.6" r="1.3"/>
  <circle class="cls-1" cx="126.2" cy="32" r="1.3"/>
  <circle class="cls-1" cx="95.6" cy="40.3" r="1.3"/>
  <circle class="cls-1" cx="84.4" cy="40.1" r="1.3"/>
  <circle class="cls-1" cx="91.2" cy="49.5" r="1.3"/>
  <circle class="cls-1" cx="95.5" cy="58.3" r="1.3"/>
  <circle class="cls-1" cx="99.4" cy="57.4" r="1.3"/>
  <circle class="cls-1" cx="103.2" cy="56.6" r="1.3"/>
  <circle class="cls-1" cx="96.9" cy="63.2" r="1.3"/>
  <circle class="cls-1" cx="101.1" cy="62.2" r="1.3"/>
  <ellipse class="cls-1" transform="translate(.8901 .75)" cx="104.7" cy="61.3" rx="1.4" ry="1.3"/>
  <circle class="cls-1" cx="76.3" cy="63.3" r="1.2"/>
  <circle class="cls-1" cx="76.6" cy="69.9" r="1.2"/>
  <circle class="cls-1" cx="78.7" cy="72" r="1.3"/>
  <circle class="cls-1" cx="82.1" cy="75" r="1.3"/>
  <circle class="cls-1" cx="85.6" cy="74" r="1.3"/>
  <circle class="cls-1" cx="89.9" cy="72.7" r="1.3"/>
  <circle class="cls-1" cx="85.6" cy="77.9" r="1.3"/>
  <circle class="cls-1" cx="89.6" cy="79.4" r="1.3"/>
  <circle class="cls-1" cx="94.6" cy="79.4" r="1.3"/>
  <circle class="cls-1" cx="98" cy="77" r="1.3"/>
  <circle class="cls-1" cx="102.4" cy="76" r="1.3"/>
  <circle class="cls-1" cx="106.9" cy="75.6" r="1.3"/>
  <circle class="cls-1" cx="111.1" cy="75" r="1.3"/>
  <circle class="cls-1" cx="110.1" cy="81" r="1.3"/>
  <circle class="cls-1" cx="104.9" cy="81" r="1.3"/>
  <circle class="cls-1" cx="100.4" cy="82" r="1.3"/>
  <circle class="cls-1" cx="95.4" cy="82" r="1.3"/>
  <circle class="cls-1" cx="90.4" cy="83.7" r="1.3"/>
  <circle class="cls-1" cx="85.7" cy="84.1" r="1.3"/>
  <circle class="cls-1" cx="87.7" cy="88.9" r="1.3"/>
  <circle class="cls-1" cx="93.4" cy="88" r="1.3"/>
  <circle class="cls-1" cx="99.1" cy="88" r="1.3"/>
  <circle class="cls-1" cx="104.1" cy="88" r="1.3"/>
  <circle class="cls-1" cx="110.1" cy="88" r="1.3"/>
  <circle class="cls-1" cx="115.4" cy="88" r="1.3"/>
  <circle class="cls-1" cx="121.4" cy="88" r="1.3"/>
  <circle class="cls-1" cx="126.4" cy="88.6" r="1.3"/>
  <circle class="cls-1" cx="131.7" cy="87.6" r="1.3"/>
  <circle class="cls-1" cx="140.9" cy="89.3" r="1.3"/>
  <circle class="cls-1" cx="141.1" cy="84.7" r="1.3"/>
  <circle class="cls-1" cx="143.2" cy="79" r="1.3"/>
  <circle class="cls-1" cx="135.7" cy="79.6" r="1.3"/>
  <circle class="cls-1" cx="131.1" cy="80" r="1.3"/>
  <circle class="cls-1" cx="125.7" cy="80.6" r="1.3"/>
  <circle class="cls-1" cx="121.1" cy="81.7" r="1.3"/>
  <circle class="cls-1" cx="122.7" cy="75" r="1.3"/>
  <circle class="cls-1" cx="127.7" cy="74.4" r="1.3"/>
  <circle class="cls-1" cx="132.4" cy="74" r="1.3"/>
  <circle class="cls-1" cx="137.1" cy="73.9" r="1.3"/>
  <circle class="cls-1" cx="140.9" cy="73.6" r="1.3"/>
  <circle class="cls-1" cx="145.1" cy="75.3" r="1.3"/>
  <circle class="cls-1" cx="146.4" cy="68.7" r="1.3"/>
  <circle class="cls-1" cx="147.7" cy="61.4" r="1.3"/>
  <circle class="cls-1" cx="149.9" cy="57.9" r="1.3"/>
  <circle class="cls-1" cx="150.4" cy="53.4" r="1.3"/>
  <circle class="cls-1" cx="151.2" cy="47" r="1.3"/>
  <circle class="cls-1" cx="140.9" cy="28" r="1.3"/>
  <circle class="cls-1" cx="145.7" cy="28" r="1.3"/>
  <circle class="cls-1" cx="147.1" cy="35.7" r="1.3"/>
  <circle class="cls-1" cx="147.2" cy="31.9" r="1.3"/>
  <circle class="cls-1" cx="150.2" cy="27.4" r="1.3"/>
  <circle class="cls-1" cx="152.4" cy="17.4" r="1.3"/>
  <circle class="cls-1" cx="152.5" cy="16.9" r="1.3"/>
  <circle class="cls-1" cx="145.7" cy="16.9" r="1.3"/>
  <circle class="cls-1" cx="88.1" cy="98.6" r="1.3"/>
  <circle class="cls-1" cx="93.3" cy="97.9" r="1.3"/>
  <circle class="cls-1" cx="95.9" cy="92.9" r="1.3"/>
  <circle class="cls-1" cx="98.1" cy="97.9" r="1.3"/>
  <circle class="cls-1" cx="101.4" cy="92.9" r="1.3"/>
  <circle class="cls-1" cx="102.6" cy="97.9" r="1.3"/>
  <circle class="cls-1" cx="106.9" cy="92.9" r="1.3"/>
  <circle class="cls-1" cx="106.9" cy="97.9" r="1.3"/>
  <circle class="cls-1" cx="112.2" cy="92.9" r="1.3"/>
  <circle class="cls-1" cx="113.5" cy="97.6" r="1.3"/>
  <circle class="cls-1" cx="117.9" cy="92.9" r="1.3"/>
  <circle class="cls-1" cx="118.1" cy="97.6" r="1.3"/>
  <circle class="cls-1" cx="124" cy="92.9" r="1.3"/>
  <circle class="cls-1" cx="123.1" cy="97.9" r="1.3"/>
  <circle class="cls-1" cx="127.1" cy="97.6" r="1.3"/>
  <circle class="cls-1" cx="135.4" cy="97.6" r="1.3"/>
  <circle class="cls-1" cx="130.6" cy="92.9" r="1.3"/>
  <circle class="cls-1" cx="135.9" cy="93.9" r="1.3"/>
  <circle class="cls-1" cx="135.7" cy="101.4" r="1.3"/>
  <circle class="cls-1" cx="132.6" cy="97.9" r="1.3"/>
  <circle class="cls-1" cx="121.9" cy="55.4" r="1.3"/>
  <circle class="cls-1" cx="126.1" cy="54.7" r="1.3"/>
  <circle class="cls-1" cx="129.6" cy="58.7" r="1.3"/>
  <circle class="cls-1" cx="127.7" cy="65.1" r="1.3"/>
  <circle class="cls-1" cx="132.1" cy="64.1" r="1.3"/>
  <circle class="cls-1" cx="135.9" cy="62.9" r="1.3"/>
  <circle class="cls-1" cx="140.6" cy="62" r="1.3"/>
  <circle class="cls-1" cx="147.9" cy="64" r="1.3"/>
  <circle class="cls-1" cx="148.1" cy="67.4" r="1.3"/>
  <circle class="cls-1" cx="92.9" cy="104.6" r="1.3"/>
  <circle class="cls-1" cx="97.9" cy="104.7" r="1.3"/>
  <circle class="cls-1" cx="102.6" cy="104.7" r="1.3"/>
  <circle class="cls-1" cx="106.9" cy="104.6" r="1.2"/>
  <circle class="cls-1" cx="113.6" cy="103.6" r="1.3"/>
  <circle class="cls-1" cx="118" cy="103.7" r="1.3"/>
  <circle class="cls-1" cx="122.9" cy="103.7" r="1.3"/>
  <circle class="cls-1" cx="127.4" cy="103.6" r="1.3"/>
  <circle class="cls-1" cx="132.1" cy="103.7" r="1.2"/>
  <circle class="cls-1" cx="135.7" cy="105.9" r="1.3"/>
  <circle class="cls-1" cx="134.7" cy="110.4" r="1.2"/>
  <path class="cls-1" d="m138.8 110h5c0-4.7 1.1-12.2 3-15.6 4.2-6.5 8.2-17.7 10.8-38.5 0.8-6.5 2.4-26.9 2.8-34.2 0.2-5-2-10.7-7.8-12.3-1.6-0.5-4.7-1-6.9-0.8l-0.4 5.9c5.7-0.7 9.1 3.1 8.2 9l-6.6 11.6 3.7 2.6 3.5-10.7c0.3 8.4-0.4 34.6-7.4 51.4-3.8 9.2-6.6 12.2-7.3 14.6s-1.2 9-1.3 12"/>
</svg>